<svg width="62" height="62" viewBox="0 0 62 62" fill="none" xmlns="http://www.w3.org/2000/svg">
<path opacity="0.4" d="M50 31H20" stroke="#BFBB50"/>
<path d="M20.5 29.5C19.7 29.5 19 30.2 19 31C19 31.8 19.7 32.5 20.5 32.5C21.3 32.5 22 31.8 22 31C22 30.2 21.3 29.5 20.5 29.5Z" fill="#BFBB50"/>
<path d="M49.5 29.5C48.7 29.5 48 30.2 48 31C48 31.8 48.7 32.5 49.5 32.5C50.3 32.5 51 31.8 51 31C51 30.2 50.3 29.5 49.5 29.5Z" fill="#BFBB50"/>
<path d="M16 35.5C15.2 34 13.5 32.5 11 31C13.5 29.5 15.2 28 16 26.5V29.5L14.8 31L16 32.5V35.5Z" fill="#BFBB50"/>
<rect x="0.5" y="0.5" width="61" height="61" rx="30.5" stroke="#BFBB50"/>
</svg>
